:SAMPLES-PER-SECOND 30
:FULLY-SPECIFIED
:DEGREES
338
root  1.19105 38.7753 -9.93553 -10.0531 -61.7029 2.31694
RightUpLeg  -15.9573 10.178 -10.0989
RightLeg  16.2358 3.84908 0.434677
RightFoot  -0.548425 -0.872058 9.16512
RightToes  4.01633e-009 0 -3.6325e-017
Spine  7.07255 -1.92809 -2.71455
Spine1  8.29126 -2.41206 -0.567815
HEad  -6.03955 3.85457 -2.29067
LeftShoulder1  -0.00954086 3.53042 -29.7813
LeftArm  5.14232 6.67696 -45.064
LeftForeArm  19.3026 -28.0517 -5.00886
LeftHand  -0.110245 -0.233121 2.31455
RightShoulder  -0.640565 -5.4441 26.3086
RightArm  15.8658 -4.5962 45.6369
RightForeArm  0.827114 17.7521 5.18118
RightHand  -0.518607 2.09269 -8.24751
LeftUpLeg  8.98371 5.04346 -8.6873
LeftLeg  14.6372 -9.41482 -2.27411
LeftFoot  -12.8827 0.299179 16.2868
LeftToes  -1.95724e-009 9.62483e-011 3.51777e-011
339
root  0.179523 38.7065 -9.5175 -9.66638 -58.5836 2.18456
RightUpLeg  -14.2772 0.70681 -8.09622
RightLeg  5.63628 12.1139 -1.72381
RightFoot  -0.390572 -1.1585 12.0209
RightToes  4.01633e-009 0 -3.6325e-017
Spine  6.63285 -2.12768 -1.92812
Spine1  8.48445 -2.37354 -0.927933
HEad  -6.6726 3.72982 -2.50466
LeftShoulder1  -0.0069124 3.52296 -29.8234
LeftArm  5.45862 6.62579 -44.884
LeftForeArm  19.1246 -27.8069 -4.96331
LeftHand  -0.09763 -0.303388 2.05161
RightShoulder  -0.66229 -5.50386 26.4245
RightArm  16.2183 -4.45376 45.2507
RightForeArm  0.155257 18.3155 5.11963
RightHand  -0.461668 1.22226 -8.20019
LeftUpLeg  10.989 5.31015 -7.93062
LeftLeg  14.3492 -12.7412 -2.94334
LeftFoot  -13.8275 0.45384 16.9415
LeftToes  -1.95724e-009 9.62483e-011 3.51777e-011
340
root  -0.87906 38.6075 -9.07488 -9.42462 -55.5884 2.02602
RightUpLeg  -13.2559 -6.42714 -6.60685
RightLeg  -1.7231 18.995 -3.69709
RightFoot  -0.942868 -1.12869 12.2745
RightToes  4.01633e-009 0 -3.6325e-017
Spine  6.29533 -2.12893 -1.51805
Spine1  8.7394 -2.37719 -0.552428
HEad  -7.32467 3.85701 -2.77865
LeftShoulder1  -0.00775784 3.52509 -30.2813
LeftArm  6.17269 6.77081 -44.4341
LeftForeArm  18.3973 -26.9651 -4.81292
LeftHand  -0.0969625 -0.772713 1.94708
RightShoulder  -0.630822 -5.41982 26.2088
RightArm  15.9434 -4.50598 44.8758
RightForeArm  0.190993 18.2883 5.09084
RightHand  -0.365993 1.08719 -6.71691
LeftUpLeg  13.1175 5.31346 -7.15132
LeftLeg  14.1958 -15.5856 -3.23961
LeftFoot  -14.9015 0.622115 16.9859
LeftToes  -1.95724e-009 9.62483e-011 3.51777e-011
341
root  -1.99838 38.4231 -8.66069 -9.3308 -53.2222 2.26102
RightUpLeg  -13.6229 -6.69419 -6.82362
RightLeg  -2.55903 19.9632 -3.21449
RightFoot  -2.39273 -0.974286 12.1665
RightToes  4.01633e-009 0 -3.6325e-017
Spine  6.0153 -1.84292 -1.34721
Spine1  8.65946 -2.10165 -0.312794
HEad  -7.46524 3.61129 -3.3847
LeftShoulder1  0.003634 3.4933 -30.1846
LeftArm  6.70748 7.4475 -44.2893
LeftForeArm  17.3593 -25.6647 -4.57273
LeftHand  -0.104853 0.657933 2.49572
RightShoulder  -0.578315 -5.27526 25.9004
RightArm  16.2106 -4.64085 45.095
RightForeArm  -0.61146 17.2505 5.40627
RightHand  -0.646662 2.08155 -10.0201
LeftUpLeg  14.7179 4.50781 -6.97614
LeftLeg  14.606 -16.9108 -2.97997
LeftFoot  -16.5825 0.869381 16.6888
LeftToes  -1.95724e-009 9.62483e-011 3.51777e-011
342
root  -3.12044 38.2075 -8.21953 -8.83633 -50.7682 2.13895
RightUpLeg  -14.5654 -6.57844 -6.75639
RightLeg  0.989502 21.1501 -2.09946
RightFoot  2.2449 -1.57944 13.3179
RightToes  4.01633e-009 0 -3.6325e-017
Spine  5.78467 -1.83516 -0.689055
Spine1  8.63609 -2.05405 -0.364912
HEad  -7.78139 4.28838 -3.72063
LeftShoulder1  -0.0608222 3.6694 -30.6496
LeftArm  7.30924 7.93165 -43.3831
LeftForeArm  15.7186 -23.573 -4.26002
LeftHand  -0.0974454 0.890494 2.41731
RightShoulder  -0.589896 -5.30461 26.0143
RightArm  15.8682 -4.1312 45.225
RightForeArm  -1.38238 15.5679 5.89493
RightHand  -0.944028 3.77484 -11.971
LeftUpLeg  15.9329 2.22389 -7.12681
LeftLeg  15.4996 -16.5451 -2.58937
LeftFoot  -18.4952 1.12097 16.0337
LeftToes  -1.95724e-009 9.62483e-011 3.51777e-011
